<svg width="149" height="137" viewBox="0 0 149 137" fill="none" xmlns="http://www.w3.org/2000/svg">
<g clip-path="url(#clip0_511_1794)">
<path d="M178.295 -0.0302046C160.049 3.61921 111.572 55.6554 69.5809 81.5175C17.353 113.688 -86.2998 143.715 -146.208 144.137" stroke="#FF7683" stroke-miterlimit="10"/>
<path d="M178.379 -0.113472C160.134 3.53594 111.55 55.451 69.4548 81.1572C16.43 113.443 -86.4002 142.446 -146.791 142.092" stroke="#C60115" stroke-miterlimit="10"/>
<path d="M178.465 -0.194352C160.219 3.45506 111.527 55.2466 69.3283 80.7968C15.509 113.197 -86.4999 141.18 -147.371 140.047" stroke="#C60115" stroke-miterlimit="10"/>
<path d="M178.548 -0.274531C160.302 3.37488 111.503 55.0453 69.201 80.4396C14.5861 112.952 -86.5991 139.913 -147.954 138.002" stroke="#C60115" stroke-miterlimit="10"/>
<path d="M178.634 -0.355457C160.388 3.29396 111.542 54.9424 69.0748 80.0792C13.7401 112.834 -86.6997 138.644 -148.536 135.954" stroke="#C60115" stroke-miterlimit="10"/>
<path d="M178.719 -0.436338C160.474 3.21308 111.53 54.7597 68.9498 79.7213C12.8337 112.617 -86.8002 137.375 -149.116 133.908" stroke="#C60115" stroke-miterlimit="10"/>
<path d="M178.803 -0.516024C160.557 3.13339 111.516 54.5746 68.8211 79.3621C11.9223 112.396 -86.9009 136.107 -149.699 131.864" stroke="#C60115" stroke-miterlimit="10"/>
<path d="M178.887 -0.599338C160.641 3.05008 111.501 54.3846 68.6949 79.0018C11.0123 112.172 -87.0003 134.84 -150.28 129.818" stroke="#C60115" stroke-miterlimit="10"/>
<path d="M178.973 -0.68067C160.727 2.96874 111.486 54.1967 68.5687 78.641C10.1011 111.945 -87.1008 133.571 -150.863 127.773" stroke="#C60115" stroke-miterlimit="10"/>
<path d="M179.056 -0.7604C160.81 2.88901 111.467 54.0055 68.4413 78.2842C9.18753 111.72 -87.2025 132.306 -151.443 125.727" stroke="#C60115" stroke-miterlimit="10"/>
<path d="M179.141 -0.841322C160.896 2.80809 111.45 53.8131 68.3151 77.9238C8.27146 111.489 -87.3008 131.036 -152.025 123.679" stroke="#C60115" stroke-miterlimit="10"/>
<path d="M179.227 -0.922156C160.981 2.72726 111.431 53.616 68.19 77.5659C7.3542 111.257 -87.4038 129.769 -152.608 121.635" stroke="#C60115" stroke-miterlimit="10"/>
<path d="M179.309 -1.00482C161.063 2.64459 111.408 53.417 68.0602 77.2038C6.43467 111.019 -87.5043 128.5 -153.19 119.586" stroke="#C60115" stroke-miterlimit="10"/>
<path d="M179.395 -1.08569C161.149 2.56373 111.389 53.2199 67.9352 76.8459C5.51871 110.783 -87.6037 127.233 -153.769 117.543" stroke="#C60115" stroke-miterlimit="10"/>
<path d="M179.48 -1.1666C161.235 2.48281 111.367 53.0178 67.809 76.4855C4.59801 110.543 -87.7018 125.963 -154.351 115.495" stroke="#C60115" stroke-miterlimit="10"/>
<path d="M179.563 -1.24625C161.318 2.40316 111.343 52.8171 67.6814 76.1288C3.67469 110.304 -87.8038 124.698 -154.933 113.453" stroke="#C60115" stroke-miterlimit="10"/>
<path d="M179.649 -1.32718C161.403 2.32223 111.318 52.6138 67.5552 75.7684C2.75044 110.057 -87.9043 123.43 -155.514 111.405" stroke="#C60115" stroke-miterlimit="10"/>
<path d="M179.731 -1.40946C161.485 2.23995 111.29 52.4056 67.4266 75.409C1.82614 109.81 -88.0049 122.161 -156.1 109.361" stroke="#C60115" stroke-miterlimit="10"/>
<path d="M179.817 -1.49065C161.571 2.15877 111.266 52.1985 67.3003 75.0484C0.899397 109.557 -88.1055 120.892 -156.682 107.313" stroke="#C60115" stroke-miterlimit="10"/>
<path d="M179.902 -1.57152C161.657 2.07789 111.241 51.9892 67.1753 74.6905C-0.0260615 109.308 -88.2049 119.626 -157.261 105.27" stroke="#C60115" stroke-miterlimit="10"/>
<path d="M179.985 -1.65123C161.74 1.99818 111.213 51.7811 67.0467 74.3313C-0.953888 109.053 -88.3054 118.357 -157.843 103.222" stroke="#C60115" stroke-miterlimit="10"/>
<path d="M180.071 -1.73233C161.825 1.91708 111.185 51.5705 66.9218 73.9732C-1.88287 108.796 -88.4047 117.09 -158.424 101.179" stroke="#C60115" stroke-miterlimit="10"/>
<path d="M180.155 -1.81542C161.91 1.83399 111.156 51.3542 66.7942 73.6106C-2.81446 108.535 -88.5055 115.822 -159.006 99.1316" stroke="#C60115" stroke-miterlimit="10"/>
<path d="M180.239 -1.89532C161.993 1.75409 111.126 51.1411 66.6668 73.2536C-3.74825 108.274 -88.6084 114.554 -159.589 97.0869" stroke="#C60115" stroke-miterlimit="10"/>
<path d="M180.324 -1.97647C162.079 1.67294 111.097 50.9244 66.5407 72.893C-4.67834 108.009 -88.7077 113.288 -160.169 95.041" stroke="#C60115" stroke-miterlimit="10"/>
<path d="M180.41 -2.0574C162.164 1.59201 111.069 50.7078 66.4157 72.535C-5.61207 107.742 -88.8083 112.019 -160.751 92.9929" stroke="#C60115" stroke-miterlimit="10"/>
<path d="M180.493 -2.13707C162.247 1.51235 111.036 50.4901 66.2869 72.1759C-6.54844 107.471 -88.909 110.75 -161.334 90.9485" stroke="#C60115" stroke-miterlimit="10"/>
<path d="M180.579 -2.21797C162.333 1.43144 110.966 50.1892 66.1619 71.818C-7.54729 107.066 -89.0083 109.484 -161.915 88.9028" stroke="#C60115" stroke-miterlimit="10"/>
<path d="M180.663 -2.30153C162.417 1.34789 110.943 49.9845 66.0345 71.4549C-8.47043 106.821 -89.109 108.215 -162.495 86.8569" stroke="#C60115" stroke-miterlimit="10"/>
<path d="M180.746 -2.38131C162.501 1.2681 110.919 49.7836 65.9071 71.0981C-9.39351 106.576 -89.2095 106.946 -163.078 84.8124" stroke="#FFEFF1" stroke-miterlimit="10"/>
<path d="M180.832 -2.46237C162.586 1.18704 110.898 49.5814 65.7809 70.7376C-10.3142 106.33 -89.3088 105.68 -163.66 82.7642" stroke="#C60115" stroke-miterlimit="10"/>
<path d="M180.918 -2.54324C162.672 1.10617 110.878 49.3782 65.6558 70.3797C-11.2373 106.085 -89.4095 104.411 -164.243 80.7197" stroke="#C60115" stroke-miterlimit="10"/>
<path d="M179.52 -4.04074C160.883 1.62792 128.307 42.5923 91.2631 71.9239C25.9606 123.632 -74.1538 146.658 -131.845 140.506" stroke="#C60115" stroke-miterlimit="10"/>
<path d="M179.52 -4.04077C160.883 1.62788 127.914 42.8208 90.7442 72.0708C26.0861 123.067 -73.8671 146.427 -132.106 140.077" stroke="#C60115" stroke-miterlimit="10"/>
<path d="M179.52 -4.04061C160.883 1.62804 127.52 43.0507 90.2264 72.2202C26.2116 122.508 -73.5781 146.196 -132.365 139.647" stroke="#FFEFF1" stroke-miterlimit="10"/>
<path d="M179.52 -4.04086C160.883 1.62779 127.127 43.2789 89.7075 72.3669C26.3395 121.948 -73.2901 145.967 -132.625 139.221" stroke="#C60115" stroke-miterlimit="10"/>
<path d="M179.52 -4.0409C160.883 1.62775 126.674 43.4324 89.1874 72.5173C26.3639 121.262 -73.0058 145.738 -132.887 138.792" stroke="#C60115" stroke-miterlimit="10"/>
<path d="M179.52 -4.04094C160.883 1.62771 126.268 43.6439 88.6686 72.6642C26.4717 120.673 -72.7166 145.506 -133.148 138.363" stroke="#C60115" stroke-miterlimit="10"/>
<path d="M179.52 -4.04095C160.883 1.6277 125.865 43.8567 88.1509 72.8135C26.5794 120.089 -72.4287 145.278 -133.409 137.934" stroke="#C60115" stroke-miterlimit="10"/>
<path d="M179.52 -4.04103C160.883 1.62762 125.46 44.0706 87.6321 72.9603C26.6896 119.505 -72.143 145.044 -133.668 137.504" stroke="#C60115" stroke-miterlimit="10"/>
<path d="M179.52 -4.0408C160.884 1.62786 125.056 44.2873 87.1145 73.1099C26.8033 118.928 -71.8539 144.819 -133.928 137.077" stroke="#C60115" stroke-miterlimit="10"/>
<path d="M179.52 -4.0406C160.883 1.62805 124.654 44.5027 86.5931 73.2582C26.9157 118.349 -71.5684 144.586 -134.191 136.646" stroke="#C60115" stroke-miterlimit="10"/>
<path d="M179.52 -4.04086C160.883 1.62779 124.253 44.7201 86.0754 73.4072C27.0305 117.774 -71.2805 144.357 -134.451 136.219" stroke="#C60115" stroke-miterlimit="10"/>
<path d="M179.52 -4.04091C160.883 1.62774 123.853 44.9377 85.5565 73.5541C27.1501 117.203 -70.9902 144.128 -134.709 135.792" stroke="#C60115" stroke-miterlimit="10"/>
<path d="M179.52 -4.04093C160.883 1.62772 123.453 45.1577 85.0388 73.7034C27.2697 116.632 -70.7047 143.895 -134.97 135.363" stroke="#C60115" stroke-miterlimit="10"/>
<path d="M179.52 -4.04076C160.883 1.62789 123.055 45.3804 84.5199 73.8505C27.3918 116.06 -70.4179 143.664 -135.233 134.932" stroke="#C60115" stroke-miterlimit="10"/>
<path d="M179.52 -4.04105C160.883 1.6276 122.657 45.6025 84.0023 73.9995C27.515 115.496 -70.13 143.436 -135.49 134.504" stroke="#C60115" stroke-miterlimit="10"/>
<path d="M179.52 -4.04056C160.883 1.62809 122.262 45.8267 83.481 74.1481C27.6394 114.935 -69.842 143.208 -135.75 134.078" stroke="#C60115" stroke-miterlimit="10"/>
<path d="M179.52 -4.0406C160.883 1.62805 121.865 46.0516 82.9633 74.2973C27.7661 114.372 -69.5553 142.977 -136.012 133.649" stroke="#C60115" stroke-miterlimit="10"/>
<path d="M179.52 -4.04066C160.884 1.62799 121.473 46.28 82.4445 74.4442C27.8941 113.812 -69.2697 142.744 -136.274 133.217" stroke="#C60115" stroke-miterlimit="10"/>
<path d="M179.52 -4.04066C160.884 1.62799 121.081 46.5085 81.9268 74.5935C28.0245 113.257 -68.9794 142.515 -136.534 132.791" stroke="#C60115" stroke-miterlimit="10"/>
<path d="M179.52 -4.04074C160.883 1.62791 120.69 46.7394 81.4078 74.7403C28.1571 112.7 -68.6928 142.284 -136.793 132.361" stroke="#C60115" stroke-miterlimit="10"/>
<path d="M179.52 -4.04099C160.883 1.62766 120.3 46.9725 80.8901 74.8894C28.291 112.152 -68.4048 142.056 -137.054 131.934" stroke="#C60115" stroke-miterlimit="10"/>
<path d="M179.52 -4.04102C160.883 1.62763 119.91 47.2058 80.37 75.0398C28.4273 111.603 -68.1169 141.827 -137.315 131.505" stroke="#C60115" stroke-miterlimit="10"/>
<path d="M179.52 -4.04057C160.883 1.62808 119.522 47.4445 79.8511 75.1872C28.5611 111.055 -67.8314 141.595 -137.576 131.076" stroke="#C60115" stroke-miterlimit="10"/>
<path d="M179.52 -4.04083C160.883 1.62782 119.137 47.6812 79.3334 75.3363C28.701 110.513 -67.5435 141.366 -137.836 130.65" stroke="#C60115" stroke-miterlimit="10"/>
<path d="M179.52 -4.04065C160.884 1.62801 118.755 47.9232 78.8147 75.4833C28.8398 109.968 -67.2566 141.136 -138.095 130.22" stroke="#C60115" stroke-miterlimit="10"/>
<path d="M179.52 -4.04069C160.884 1.62797 118.369 48.1662 78.2969 75.6326C28.9843 109.43 -66.9663 140.906 -138.357 129.791" stroke="#C60115" stroke-miterlimit="10"/>
<path d="M179.52 -4.04094C160.884 1.62771 117.989 48.4126 77.7757 75.7805C29.1266 108.893 -66.6796 140.675 -138.617 129.364" stroke="#C60115" stroke-miterlimit="10"/>
<path d="M179.52 -4.04096C160.883 1.62769 117.61 48.6617 77.258 75.9297C29.2699 108.358 -66.3953 140.446 -138.878 128.935" stroke="#C60115" stroke-miterlimit="10"/>
<path d="M179.52 -4.04104C160.883 1.62761 117.232 48.9131 76.739 76.0766C29.4144 107.825 -66.1062 140.214 -139.137 128.505" stroke="#C60115" stroke-miterlimit="10"/>
<path d="M179.52 -4.04059C160.884 1.62806 116.897 49.2279 76.2214 76.2263C29.609 107.365 -65.8182 139.986 -139.398 128.076" stroke="#C60115" stroke-miterlimit="10"/>
<path d="M179.52 -4.04084C160.883 1.62782 116.502 49.4573 75.7024 76.373C29.7345 106.806 -65.5316 139.755 -139.659 127.65" stroke="#C60115" stroke-miterlimit="10"/>
<path d="M179.52 -4.04087C160.883 1.62778 116.11 49.6858 75.1848 76.5223C29.8614 106.243 -65.2436 139.527 -139.92 127.221" stroke="#FF7683" stroke-miterlimit="10"/>
<path d="M166.09 8.51758C111.304 76.1439 -13.3497 50.064 -125.84 166.818" stroke="#FF7683" stroke-miterlimit="10"/>
<path d="M166.149 8.66232C111.411 76.2951 -13.3103 50.2843 -125.721 167.054" stroke="#FF7683" stroke-miterlimit="10"/>
<path d="M166.207 8.81068C111.52 76.4451 -13.2684 50.5034 -125.599 167.29" stroke="#FF7683" stroke-miterlimit="10"/>
<path d="M166.266 8.9555C111.628 76.5988 -13.2265 50.7226 -125.478 167.525" stroke="#FF7683" stroke-miterlimit="10"/>
<path d="M166.326 9.10271C111.738 76.7488 -13.1835 50.9442 -125.359 167.762" stroke="#FF7683" stroke-miterlimit="10"/>
<path d="M166.383 9.24817C111.844 76.8971 -13.1438 51.164 -125.237 167.996" stroke="#FF7683" stroke-miterlimit="10"/>
<path d="M166.443 9.3953C111.955 77.0495 -13.1019 51.3831 -125.115 168.233" stroke="#FF7683" stroke-miterlimit="10"/>
<path d="M166.502 9.54005C112.061 77.2006 -13.0602 51.6022 -124.993 168.469" stroke="#FF7683" stroke-miterlimit="10"/>
<path d="M166.56 9.68874C112.171 77.351 -13.0169 51.824 -124.875 168.705" stroke="#FF7683" stroke-miterlimit="10"/>
<path d="M166.621 9.83591C112.278 77.5022 -12.975 52.0432 -124.752 168.942" stroke="#FF7683" stroke-miterlimit="10"/>
<path d="M166.68 9.98051C112.387 77.652 -12.9356 52.2633 -124.63 169.178" stroke="#FF7683" stroke-miterlimit="10"/>
<path d="M166.737 10.1288C112.494 77.8032 -12.8926 52.4848 -124.512 169.414" stroke="#FF7683" stroke-miterlimit="10"/>
<path d="M163.829 11.1106C102.601 77.9212 -12.6159 42.6156 -135.375 156.784" stroke="#C60115" stroke-miterlimit="10"/>
<path d="M163.826 11.1115C102.468 77.8934 -12.533 42.3949 -135.495 156.496" stroke="#C60115" stroke-miterlimit="10"/>
<path d="M163.825 11.1093C102.335 77.8659 -12.4468 42.1759 -135.617 156.205" stroke="#C60115" stroke-miterlimit="10"/>
<path d="M163.824 11.1068C102.202 77.8383 -12.364 41.9554 -135.737 155.913" stroke="#C60115" stroke-miterlimit="10"/>
<path d="M163.823 11.1043C102.07 77.813 -12.2787 41.7338 -135.859 155.622" stroke="#C60115" stroke-miterlimit="10"/>
<path d="M163.821 11.1022C101.94 77.7845 -12.1935 41.5125 -135.981 155.332" stroke="#C60115" stroke-miterlimit="10"/>
<path d="M163.821 11.102C101.807 77.7567 -12.1082 41.2907 -136.102 155.041" stroke="#C60115" stroke-miterlimit="10"/>
<path d="M163.818 11.1009C101.674 77.7293 -12.0254 41.0704 -136.221 154.752" stroke="#C60115" stroke-miterlimit="10"/>
<path d="M163.817 11.0986C101.541 77.7018 -11.9401 40.849 -136.342 154.461" stroke="#C60115" stroke-miterlimit="10"/>
<path d="M163.815 11.0958C101.409 77.6762 -11.855 40.627 -136.464 154.17" stroke="#C60115" stroke-miterlimit="10"/>
<path d="M163.816 11.0962C101.279 77.6479 -11.772 40.407 -136.586 153.88" stroke="#C60115" stroke-miterlimit="10"/>
<path d="M163.814 11.0935C101.146 77.6199 -11.687 40.1851 -136.706 153.588" stroke="#C60115" stroke-miterlimit="10"/>
<path d="M163.813 11.0914C101.013 77.5926 -11.6015 39.9637 -136.827 153.297" stroke="#C60115" stroke-miterlimit="10"/>
<path d="M163.81 11.09C100.88 77.5649 -11.5188 39.7432 -136.948 153.009" stroke="#C60115" stroke-miterlimit="10"/>
<path d="M163.808 11.0877C100.749 77.5362 -11.4336 39.5217 -137.07 152.718" stroke="#C60115" stroke-miterlimit="10"/>
<path d="M163.808 11.0875C100.617 77.5108 -11.3484 39.2999 -137.192 152.427" stroke="#C60115" stroke-miterlimit="10"/>
<path d="M163.807 11.0851C100.485 77.4833 -11.2656 39.0796 -137.311 152.135" stroke="#C60115" stroke-miterlimit="10"/>
<path d="M163.806 11.0826C100.352 77.4556 -11.1803 38.8579 -137.433 151.845" stroke="#C60115" stroke-miterlimit="10"/>
<path d="M163.803 11.0816C100.219 77.4282 -11.0951 38.6365 -137.555 151.554" stroke="#C60115" stroke-miterlimit="10"/>
<path d="M163.802 11.0816C100.088 77.3995 -11.0123 38.4161 -137.675 151.266" stroke="#C60115" stroke-miterlimit="10"/>
<path d="M163.801 11.0789C99.9564 77.374 -10.9271 38.1942 -137.795 150.974" stroke="#C60115" stroke-miterlimit="10"/>
<path d="M163.8 11.0768C99.8235 77.3466 -10.8418 37.9729 -137.916 150.683" stroke="#C60115" stroke-miterlimit="10"/>
<path d="M163.799 11.0742C99.6904 77.3189 -10.7592 37.7523 -138.038 150.392" stroke="#C60115" stroke-miterlimit="10"/>
<path d="M163.798 11.0716C99.5599 77.2899 -10.6739 37.5306 -138.16 150.102" stroke="#C60115" stroke-miterlimit="10"/>
<path d="M163.795 11.0731C99.4269 77.2626 -10.5888 37.3093 -138.28 149.81" stroke="#C60115" stroke-miterlimit="10"/>
<path d="M163.794 11.0707C99.2951 77.2374 -10.5059 37.0889 -138.4 149.522" stroke="#C60115" stroke-miterlimit="10"/>
<path d="M163.793 11.0684C99.1623 77.21 -10.4206 36.8675 -138.522 149.231" stroke="#C60115" stroke-miterlimit="10"/>
<path d="M163.792 11.066C99.0294 77.1824 -10.3353 36.6458 -138.644 148.94" stroke="#C60115" stroke-miterlimit="10"/>
<path d="M163.792 11.0657C98.8988 77.1533 -10.2526 36.4251 -138.763 148.648" stroke="#C60115" stroke-miterlimit="10"/>
<path d="M163.791 11.0636C98.7659 77.126 -10.1673 36.2038 -138.885 148.358" stroke="#C60115" stroke-miterlimit="10"/>
<path d="M163.787 11.0621C98.6328 77.0982 -10.0847 35.9832 -139.007 148.067" stroke="#C60115" stroke-miterlimit="10"/>
<path d="M163.786 11.0598C98.5011 77.0731 -9.99694 35.7606 -139.128 147.779" stroke="#C60115" stroke-miterlimit="10"/>
</g>
<defs>
<clipPath id="clip0_511_1794">
<rect width="149" height="137" fill="white"/>
</clipPath>
</defs>
</svg>
